<?xml version="1.0" encoding="UTF-8"?><svg id="Camada_2" xmlns="http://www.w3.org/2000/svg" viewBox="0 0 3662.14 123.52"><defs><style>.cls-1{fill:none;stroke:#003dc4;stroke-linecap:round;stroke-linejoin:round;stroke-width:1.5px;}</style></defs><g id="Camada_1-2"><path class="cls-1" d="m305.8,122.77c0-33.7,27.32-61.01,61.01-61.01-33.7,0-61.01-27.32-61.01-61.01h0s0,122.02,0,122.02Z"/><path class="cls-1" d="m244.79,122.77c0-33.7,27.32-61.01,61.01-61.01-33.7,0-61.01-27.32-61.01-61.01h0s0,122.02,0,122.02Z"/><path class="cls-1" d="m183.78,122.77c0-33.7,27.32-61.01,61.01-61.01-33.7,0-61.01-27.32-61.01-61.01h0s0,122.02,0,122.02Z"/><path class="cls-1" d="m122.77,122.77c0-33.7,27.32-61.01,61.01-61.01-33.7,0-61.01-27.32-61.01-61.01h0s0,122.02,0,122.02Z"/><path class="cls-1" d="m61.76,122.77c0-33.7,27.32-61.01,61.01-61.01-33.7,0-61.01-27.32-61.01-61.01h0s0,122.02,0,122.02Z"/><path class="cls-1" d="m.75,122.77c0-33.7,27.32-61.01,61.01-61.01C28.07,61.76.75,34.45.75.75h0s0,122.02,0,122.02Z"/><path class="cls-1" d="m671.87,122.77c0-33.7,27.32-61.01,61.01-61.01-33.7,0-61.01-27.32-61.01-61.01h0s0,122.02,0,122.02Z"/><path class="cls-1" d="m610.86,122.77c0-33.7,27.32-61.01,61.01-61.01-33.7,0-61.01-27.32-61.01-61.01h0s0,122.02,0,122.02Z"/><path class="cls-1" d="m549.85,122.77c0-33.7,27.32-61.01,61.01-61.01-33.7,0-61.01-27.32-61.01-61.01h0s0,122.02,0,122.02Z"/><path class="cls-1" d="m488.84,122.77c0-33.7,27.32-61.01,61.01-61.01-33.7,0-61.01-27.32-61.01-61.01h0s0,122.02,0,122.02Z"/><path class="cls-1" d="m427.82,122.77c0-33.7,27.32-61.01,61.01-61.01-33.7,0-61.01-27.32-61.01-61.01h0s0,122.02,0,122.02Z"/><path class="cls-1" d="m366.81,122.77c0-33.7,27.32-61.01,61.01-61.01-33.7,0-61.01-27.32-61.01-61.01h0s0,122.02,0,122.02Z"/><path class="cls-1" d="m1037.93,122.77c0-33.7,27.32-61.01,61.01-61.01-33.7,0-61.01-27.32-61.01-61.01h0s0,122.02,0,122.02Z"/><path class="cls-1" d="m976.92,122.77c0-33.7,27.32-61.01,61.01-61.01-33.7,0-61.01-27.32-61.01-61.01h0s0,122.02,0,122.02Z"/><path class="cls-1" d="m915.91,122.77c0-33.7,27.32-61.01,61.01-61.01-33.7,0-61.01-27.32-61.01-61.01h0s0,122.02,0,122.02Z"/><path class="cls-1" d="m854.9,122.77c0-33.7,27.32-61.01,61.01-61.01-33.7,0-61.01-27.32-61.01-61.01h0s0,122.02,0,122.02Z"/><path class="cls-1" d="m793.89,122.77c0-33.7,27.32-61.01,61.01-61.01-33.7,0-61.01-27.32-61.01-61.01h0s0,122.02,0,122.02Z"/><path class="cls-1" d="m732.88,122.77c0-33.7,27.32-61.01,61.01-61.01-33.7,0-61.01-27.32-61.01-61.01h0s0,122.02,0,122.02Z"/><path class="cls-1" d="m1403.99,122.77c0-33.7,27.32-61.01,61.01-61.01-33.7,0-61.01-27.32-61.01-61.01h0s0,122.02,0,122.02Z"/><path class="cls-1" d="m1342.98,122.77c0-33.7,27.32-61.01,61.01-61.01-33.7,0-61.01-27.32-61.01-61.01h0s0,122.02,0,122.02Z"/><path class="cls-1" d="m1281.97,122.77c0-33.7,27.32-61.01,61.01-61.01-33.7,0-61.01-27.32-61.01-61.01h0s0,122.02,0,122.02Z"/><path class="cls-1" d="m1220.96,122.77c0-33.7,27.32-61.01,61.01-61.01-33.7,0-61.01-27.32-61.01-61.01h0s0,122.02,0,122.02Z"/><path class="cls-1" d="m1159.95,122.77c0-33.7,27.32-61.01,61.01-61.01-33.7,0-61.01-27.32-61.01-61.01h0s0,122.02,0,122.02Z"/><path class="cls-1" d="m1098.94,122.77c0-33.7,27.32-61.01,61.01-61.01-33.7,0-61.01-27.32-61.01-61.01h0s0,122.02,0,122.02Z"/><path class="cls-1" d="m1770.06,122.77c0-33.7,27.32-61.01,61.01-61.01-33.7,0-61.01-27.32-61.01-61.01h0s0,122.02,0,122.02Z"/><path class="cls-1" d="m1709.05,122.77c0-33.7,27.32-61.01,61.01-61.01-33.7,0-61.01-27.32-61.01-61.01h0s0,122.02,0,122.02Z"/><path class="cls-1" d="m1648.04,122.77c0-33.7,27.32-61.01,61.01-61.01-33.7,0-61.01-27.32-61.01-61.01h0s0,122.02,0,122.02Z"/><path class="cls-1" d="m1587.03,122.77c0-33.7,27.32-61.01,61.01-61.01-33.7,0-61.01-27.32-61.01-61.01h0s0,122.02,0,122.02Z"/><path class="cls-1" d="m1526.02,122.77c0-33.7,27.32-61.01,61.01-61.01-33.7,0-61.01-27.32-61.01-61.01h0s0,122.02,0,122.02Z"/><path class="cls-1" d="m1465.01,122.77c0-33.7,27.32-61.01,61.01-61.01-33.7,0-61.01-27.32-61.01-61.01h0s0,122.02,0,122.02Z"/><path class="cls-1" d="m2136.12,122.77c0-33.7,27.32-61.01,61.01-61.01-33.7,0-61.01-27.32-61.01-61.01h0s0,122.02,0,122.02Z"/><path class="cls-1" d="m2075.11,122.77c0-33.7,27.32-61.01,61.01-61.01-33.7,0-61.01-27.32-61.01-61.01h0s0,122.02,0,122.02Z"/><path class="cls-1" d="m2014.1,122.77c0-33.7,27.32-61.01,61.01-61.01-33.7,0-61.01-27.32-61.01-61.01h0s0,122.02,0,122.02Z"/><path class="cls-1" d="m1953.09,122.77c0-33.7,27.32-61.01,61.01-61.01-33.7,0-61.01-27.32-61.01-61.01h0s0,122.02,0,122.02Z"/><path class="cls-1" d="m1892.08,122.77c0-33.7,27.32-61.01,61.01-61.01-33.7,0-61.01-27.32-61.01-61.01h0s0,122.02,0,122.02Z"/><path class="cls-1" d="m1831.07,122.77c0-33.7,27.32-61.01,61.01-61.01-33.7,0-61.01-27.32-61.01-61.01h0s0,122.02,0,122.02Z"/><path class="cls-1" d="m2502.19,122.77c0-33.7,27.32-61.01,61.01-61.01-33.7,0-61.01-27.32-61.01-61.01h0s0,122.02,0,122.02Z"/><path class="cls-1" d="m2441.18,122.77c0-33.7,27.32-61.01,61.01-61.01-33.7,0-61.01-27.32-61.01-61.01h0s0,122.02,0,122.02Z"/><path class="cls-1" d="m2380.17,122.77c0-33.7,27.32-61.01,61.01-61.01-33.7,0-61.01-27.32-61.01-61.01h0s0,122.02,0,122.02Z"/><path class="cls-1" d="m2319.15,122.77c0-33.7,27.32-61.01,61.01-61.01-33.7,0-61.01-27.32-61.01-61.01h0s0,122.02,0,122.02Z"/><path class="cls-1" d="m2258.14,122.77c0-33.7,27.32-61.01,61.01-61.01-33.7,0-61.01-27.32-61.01-61.01h0s0,122.02,0,122.02Z"/><path class="cls-1" d="m2197.13,122.77c0-33.7,27.32-61.01,61.01-61.01-33.7,0-61.01-27.32-61.01-61.01h0s0,122.02,0,122.02Z"/><path class="cls-1" d="m2868.25,122.77c0-33.7,27.32-61.01,61.01-61.01-33.7,0-61.01-27.32-61.01-61.01h0s0,122.02,0,122.02Z"/><path class="cls-1" d="m2807.24,122.77c0-33.7,27.32-61.01,61.01-61.01-33.7,0-61.01-27.32-61.01-61.01h0s0,122.02,0,122.02Z"/><path class="cls-1" d="m2746.23,122.77c0-33.7,27.32-61.01,61.01-61.01-33.7,0-61.01-27.32-61.01-61.01h0s0,122.02,0,122.02Z"/><path class="cls-1" d="m2685.22,122.77c0-33.7,27.32-61.01,61.01-61.01-33.7,0-61.01-27.32-61.01-61.01h0s0,122.02,0,122.02Z"/><path class="cls-1" d="m2624.21,122.77c0-33.7,27.32-61.01,61.01-61.01-33.7,0-61.01-27.32-61.01-61.01h0s0,122.02,0,122.02Z"/><path class="cls-1" d="m2563.2,122.77c0-33.7,27.32-61.01,61.01-61.01-33.7,0-61.01-27.32-61.01-61.01h0s0,122.02,0,122.02Z"/><path class="cls-1" d="m3234.31,122.77c0-33.7,27.32-61.01,61.01-61.01-33.7,0-61.01-27.32-61.01-61.01h0s0,122.02,0,122.02Z"/><path class="cls-1" d="m3173.3,122.77c0-33.7,27.32-61.01,61.01-61.01-33.7,0-61.01-27.32-61.01-61.01h0s0,122.02,0,122.02Z"/><path class="cls-1" d="m3112.29,122.77c0-33.7,27.32-61.01,61.01-61.01-33.7,0-61.01-27.32-61.01-61.01h0s0,122.02,0,122.02Z"/><path class="cls-1" d="m3051.28,122.77c0-33.7,27.32-61.01,61.01-61.01-33.7,0-61.01-27.32-61.01-61.01h0s0,122.02,0,122.02Z"/><path class="cls-1" d="m2990.27,122.77c0-33.7,27.32-61.01,61.01-61.01-33.7,0-61.01-27.32-61.01-61.01h0s0,122.02,0,122.02Z"/><path class="cls-1" d="m2929.26,122.77c0-33.7,27.32-61.01,61.01-61.01-33.7,0-61.01-27.32-61.01-61.01h0s0,122.02,0,122.02Z"/><path class="cls-1" d="m3600.38,122.77c0-33.7,27.32-61.01,61.01-61.01-33.7,0-61.01-27.32-61.01-61.01h0s0,122.02,0,122.02Z"/><path class="cls-1" d="m3539.37,122.77c0-33.7,27.32-61.01,61.01-61.01-33.7,0-61.01-27.32-61.01-61.01h0s0,122.02,0,122.02Z"/><path class="cls-1" d="m3478.36,122.77c0-33.7,27.32-61.01,61.01-61.01-33.7,0-61.01-27.32-61.01-61.01h0s0,122.02,0,122.02Z"/><path class="cls-1" d="m3417.35,122.77c0-33.7,27.32-61.01,61.01-61.01-33.7,0-61.01-27.32-61.01-61.01h0s0,122.02,0,122.02Z"/><path class="cls-1" d="m3356.34,122.77c0-33.7,27.32-61.01,61.01-61.01-33.7,0-61.01-27.32-61.01-61.01h0s0,122.02,0,122.02Z"/><path class="cls-1" d="m3295.32,122.77c0-33.7,27.32-61.01,61.01-61.01-33.7,0-61.01-27.32-61.01-61.01h0s0,122.02,0,122.02Z"/></g></svg>