<?xml version="1.0" encoding="UTF-8"?><svg id="Camada_2" xmlns="http://www.w3.org/2000/svg" xmlns:xlink="http://www.w3.org/1999/xlink" viewBox="0 0 92.78 92.78"><defs><style>.cls-1{filter:url(#drop-shadow-1);}.cls-2{fill:#30bf39;}.cls-2,.cls-3{stroke-width:0px;}.cls-3{fill:#fff;fill-rule:evenodd;}</style><filter id="drop-shadow-1" filterUnits="userSpaceOnUse"><feOffset dx="3" dy="3"/><feGaussianBlur result="blur" stdDeviation="2"/><feFlood flood-color="#000" flood-opacity=".1"/><feComposite in2="blur" operator="in"/><feComposite in="SourceGraphic"/></filter></defs><g id="Camada_1-2"><g class="cls-1"><circle class="cls-2" cx="46.39" cy="46.39" r="46.39"/><path class="cls-3" d="m59.58,51.15c-.65-.36-3.85-2.08-4.45-2.32-.6-.24-1.04-.37-1.5.28-.46.64-1.79,2.09-2.19,2.52-.4.43-.79.47-1.44.11-.65-.36-2.76-1.14-5.2-3.49-1.9-1.83-3.15-4.05-3.51-4.73-.36-.68,0-1.02.34-1.34.31-.29.69-.75,1.04-1.12.34-.37.46-.65.7-1.08.24-.43.14-.82-.01-1.16-.15-.34-1.36-3.65-1.86-4.99-.5-1.35-1.06-1.15-1.45-1.16-.39-.01-.83-.09-1.27-.1-.44-.02-1.17.12-1.8.76-.63.64-2.41,2.18-2.53,5.44-.12,3.26,2.13,6.5,2.45,6.95.31.46,4.31,7.52,10.94,10.43,6.64,2.91,6.67,2.02,7.89,1.96,1.22-.06,3.98-1.46,4.59-2.98.61-1.53.66-2.85.5-3.13-.16-.28-.59-.47-1.24-.82h0Zm-12.17,15.71c-4.39,0-8.47-1.32-11.89-3.57l-8.3,2.66,2.7-8.02c-2.59-3.56-4.11-7.94-4.11-12.67,0-11.92,9.69-21.61,21.6-21.61s21.61,9.69,21.61,21.61-9.69,21.61-21.61,21.61h0Zm0-47.56c-14.33,0-25.95,11.62-25.95,25.95,0,4.9,1.36,9.49,3.73,13.4l-4.69,13.92,14.37-4.6c3.72,2.06,7.99,3.23,12.54,3.23,14.34,0,25.96-11.62,25.96-25.96s-11.62-25.95-25.96-25.95h0Z"/></g></g></svg>